<svg width="512" height="512" viewBox="0 0 512 512" fill="none" xmlns="http://www.w3.org/2000/svg">
<g clip-path="url(#clip0_1_2)">
<mask id="mask0_1_2" style="mask-type:luminance" maskUnits="userSpaceOnUse" x="0" y="0" width="512" height="512">
<path d="M512 0H0V512H512V0Z" fill="white"/>
</mask>
<g mask="url(#mask0_1_2)">
<path d="M373 64H139C97.5786 64 64 97.5786 64 139V373C64 414.421 97.5786 448 139 448H373C414.421 448 448 414.421 448 373V139C448 97.5786 414.421 64 373 64Z" fill="#53AAFF"/>
<path d="M166.791 447.749C205.969 333.205 292.293 266.47 261.747 204.052C231.202 141.634 140.894 135.657 96.4045 192.103C51.9145 248.549 85.1162 374.375 166.791 447.749Z" fill="#FF6E6E"/>
<g filter="url(#filter0_d_1_2)">
<path d="M192.502 268.589L208.132 272.537C204.855 285.374 198.962 295.162 190.45 301.9C181.939 308.639 171.531 312.01 159.228 312.015C146.499 312.015 136.146 309.423 128.17 304.24C120.194 299.057 114.125 291.551 109.962 281.721C105.76 271.698 103.636 260.926 103.718 250.059C103.718 237.759 106.068 227.03 110.768 217.872C115.163 209.03 122.163 201.747 130.825 197.006C139.608 192.225 149.467 189.77 159.466 189.876C171.283 189.876 181.219 192.883 189.276 198.899C197.332 204.914 202.946 213.373 206.118 224.275L190.729 227.901C187.99 219.307 184.015 213.049 178.804 209.129C173.594 205.208 167.041 203.248 159.146 203.247C150.069 203.247 142.482 205.422 136.386 209.772C130.324 214.075 125.817 220.221 123.535 227.295C121.069 234.602 119.817 242.263 119.829 249.975C119.829 260.019 121.293 268.787 124.22 276.279C127.147 283.772 131.699 289.372 137.875 293.081C143.92 296.75 150.864 298.674 157.936 298.64C166.691 298.64 174.103 296.115 180.172 291.065C186.241 286.015 190.351 278.523 192.502 268.589ZM226.904 310V191.89H250.429L278.385 275.515C280.962 283.305 282.842 289.134 284.025 293.001C285.368 288.704 287.463 282.393 290.31 274.068L318.588 191.89H339.616V310H324.55V211.145L290.229 310H276.129L241.97 209.454V310H226.904Z" fill="#E8E8E8"/>
</g>
<path d="M294.118 296.758V286.683H324.9V296.758H294.118ZM332.081 296.758V286.683H362.863V296.758H332.081ZM373.94 343.905V262.135H383.069V269.817C384.965 267.046 387.457 264.735 390.362 263.053C393.399 261.473 396.791 260.697 400.214 260.8C404.96 260.712 409.62 262.073 413.573 264.7C417.52 267.406 420.565 271.234 422.312 275.689C424.32 280.629 425.323 285.919 425.263 291.25C425.351 296.865 424.241 302.435 422.006 307.587C420.055 312.172 416.754 316.054 412.544 318.717C408.651 321.224 404.123 322.566 399.494 322.586C396.368 322.637 393.279 321.91 390.504 320.471C387.976 319.163 385.749 317.343 383.963 315.127V343.905H373.94ZM383.015 292.026C383.015 299.634 384.556 305.256 387.636 308.892C390.716 312.529 394.444 314.348 398.822 314.35C403.275 314.35 407.088 312.467 410.261 308.7C413.434 304.934 415.021 299.098 415.021 291.194C415.021 283.661 413.471 278.02 410.371 274.272C407.271 270.524 403.569 268.649 399.266 268.647C394.998 268.647 391.223 270.642 387.941 274.632C384.658 278.621 383.016 284.419 383.014 292.026H383.015Z" fill="#E8E8E8"/>
<path fill-rule="evenodd" clip-rule="evenodd" d="M448 174.912C446.507 174.971 445.007 175 443.5 175C381.705 175 331.471 125.508 330.272 64H373C414.421 64 448 97.5786 448 139V174.912Z" fill="#FFDA48"/>
<g filter="url(#filter1_d_1_2)">
<path d="M111.25 195.25C122.434 195.25 131.5 186.184 131.5 175C131.5 163.816 122.434 154.75 111.25 154.75C100.066 154.75 91 163.816 91 175C91 186.184 100.066 195.25 111.25 195.25Z" stroke="#E8E8E8" stroke-width="12"/>
</g>
</g>
</g>
<defs>
<filter id="filter0_d_1_2" x="91.7155" y="189.872" width="259.901" height="146.142" filterUnits="userSpaceOnUse" color-interpolation-filters="sRGB">
<feFlood flood-opacity="0" result="BackgroundImageFix"/>
<feColorMatrix in="SourceAlpha" type="matrix" values="0 0 0 0 0 0 0 0 0 0 0 0 0 0 0 0 0 0 127 0" result="hardAlpha"/>
<feOffset dy="12"/>
<feGaussianBlur stdDeviation="6"/>
<feColorMatrix type="matrix" values="0 0 0 0 0 0 0 0 0 0 0 0 0 0 0 0 0 0 0.161 0"/>
<feBlend mode="normal" in2="BackgroundImageFix" result="effect1_dropShadow_1_2"/>
<feBlend mode="normal" in="SourceGraphic" in2="effect1_dropShadow_1_2" result="shape"/>
</filter>
<filter id="filter1_d_1_2" x="85" y="148.75" width="76.5" height="76.5" filterUnits="userSpaceOnUse" color-interpolation-filters="sRGB">
<feFlood flood-opacity="0" result="BackgroundImageFix"/>
<feColorMatrix in="SourceAlpha" type="matrix" values="0 0 0 0 0 0 0 0 0 0 0 0 0 0 0 0 0 0 127 0" result="hardAlpha"/>
<feOffset dx="12" dy="12"/>
<feGaussianBlur stdDeviation="6"/>
<feColorMatrix type="matrix" values="0 0 0 0 0 0 0 0 0 0 0 0 0 0 0 0 0 0 0.161 0"/>
<feBlend mode="normal" in2="BackgroundImageFix" result="effect1_dropShadow_1_2"/>
<feBlend mode="normal" in="SourceGraphic" in2="effect1_dropShadow_1_2" result="shape"/>
</filter>
<clipPath id="clip0_1_2">
<rect width="512" height="512" fill="white"/>
</clipPath>
</defs>
</svg>
